<svg xmlns="http://www.w3.org/2000/svg" viewBox="0 0 420 220" width="100%" height="220">
  <defs>
    <linearGradient id="langsBg" x1="0%" y1="0%" x2="100%" y2="100%">
      <stop offset="0%" stop-color="#0F172A" />
      <stop offset="60%" stop-color="#0B1120" />
      <stop offset="100%" stop-color="#020617" />
    </linearGradient>
    <filter id="cardShadow" x="-5%" y="-5%" width="110%" height="110%">
      <feDropShadow dx="0" dy="4" stdDeviation="6" flood-color="#000000" flood-opacity="0.5" />
    </filter>
  </defs>

  <style>
    .mono { font-family: 'Fira Code', 'JetBrains Mono', 'Segoe UI', monospace; }
    .title { font-size: 15px; font-weight: 700; fill: #F97316; letter-spacing: 0.8px; }
    .lang-name { font-size: 12.5px; fill: #E2E8F0; }
    .lang-pct { font-size: 12px; font-weight: 700; fill: #94A3B8; }
    .bar-bg { fill: #1E293B; rx: 4px; }
    .bar-fill { rx: 4px; transition: width 0.5s ease-in-out; }
    .border-glow { stroke: #334155; stroke-width: 1.2; }
  </style>

  <!-- Background -->
  <rect x="2" y="2" width="416" height="216" rx="12" fill="url(#langsBg)" class="border-glow" filter="url(#cardShadow)" />
  <line x1="16" y1="42" x2="404" y2="42" stroke="#1E293B" stroke-width="1" />

  <!-- Header Title -->
  <g transform="translate(18, 28)">
    <svg fill="#F97316" width="18" height="18" viewBox="0 0 24 24">
      <path d="M12 2L2 7l10 5 10-5-10-5zM2 17l10 5 10-5M2 12l10 5 10-5"/>
    </svg>
    <text x="26" y="14" class="mono title">TOP COMPUTATIONAL STACK</text>
  </g>

  <!-- Language Progress Bars -->
  <g transform="translate(20, 56)">
    <!-- Python -->
    <g transform="translate(0, 8)">
      <circle cx="6" cy="6" r="4" fill="#3572A5" />
      <text x="16" y="10" class="mono lang-name">Python (AI / ML / Data)</text>
      <text x="380" y="10" class="mono lang-pct" text-anchor="end">46.5%</text>
      <rect x="0" y="16" width="380" height="7" class="bar-bg" />
      <rect x="0" y="16" width="176.7" height="7" class="bar-fill" fill="#3572A5" />
    </g>

    <!-- JavaScript & TypeScript / React -->
    <g transform="translate(0, 38)">
      <circle cx="6" cy="6" r="4" fill="#F7DF1E" />
      <text x="16" y="10" class="mono lang-name">JavaScript / TypeScript (React / APIs)</text>
      <text x="380" y="10" class="mono lang-pct" text-anchor="end">24.2%</text>
      <rect x="0" y="16" width="380" height="7" class="bar-bg" />
      <rect x="0" y="16" width="92" height="7" class="bar-fill" fill="#F7DF1E" />
    </g>

    <!-- Java -->
    <g transform="translate(0, 68)">
      <circle cx="6" cy="6" r="4" fill="#B07219" />
      <text x="16" y="10" class="mono lang-name">Java (Algorithms &amp; Systems)</text>
      <text x="380" y="10" class="mono lang-pct" text-anchor="end">14.8%</text>
      <rect x="0" y="16" width="380" height="7" class="bar-bg" />
      <rect x="0" y="16" width="56.2" height="7" class="bar-fill" fill="#B07219" />
    </g>

    <!-- Embedded C & C++ -->
    <g transform="translate(0, 98)">
      <circle cx="6" cy="6" r="4" fill="#00599C" />
      <text x="16" y="10" class="mono lang-name">Embedded C / C++ (IoT &amp; M2M Hardware)</text>
      <text x="380" y="10" class="mono lang-pct" text-anchor="end">9.5%</text>
      <rect x="0" y="16" width="380" height="7" class="bar-bg" />
      <rect x="0" y="16" width="36.1" height="7" class="bar-fill" fill="#00599C" />
    </g>

    <!-- SQL & Shell -->
    <g transform="translate(0, 128)">
      <circle cx="6" cy="6" r="4" fill="#38BDF8" />
      <text x="16" y="10" class="mono lang-name">SQL / Shell (PostgreSQL, MySQL, Bash)</text>
      <text x="380" y="10" class="mono lang-pct" text-anchor="end">5.0%</text>
      <rect x="0" y="16" width="380" height="7" class="bar-bg" />
      <rect x="0" y="16" width="19" height="7" class="bar-fill" fill="#38BDF8" />
    </g>
  </g>
</svg>